<svg width="2705" height="655" viewBox="0 0 2705 655" fill="none" xmlns="http://www.w3.org/2000/svg">
<path d="M926.508 392.95V405H755V392.95H779.101V209.111H913.617V247.504H822.818V289.821H909.133V328.214H822.818V392.95H926.508ZM950.694 392.95V209.111H1024.96C1055.41 209.111 1077.08 214.249 1089.97 224.525C1103.05 234.8 1109.59 251.334 1109.59 274.127C1109.59 305.514 1097.17 325.785 1072.32 334.94L1113.23 392.95H1139.58V405H1068.11L1024.68 342.506H994.411V405H923.51V392.95H950.694ZM1026.36 304.674C1041.31 304.674 1051.49 302.245 1056.91 297.387C1062.32 292.53 1065.03 284.87 1065.03 274.408C1065.03 263.758 1062.23 256.472 1056.63 252.549C1051.02 248.625 1041.21 246.664 1027.2 246.664H994.411V304.674H1026.36ZM1367.57 392.95V405H1293.87L1275.65 362.684H1193.54L1175.32 405H1101.62V392.95H1133.85L1213.44 209.111H1255.75L1335.06 392.95H1367.57ZM1234.74 267.402L1210.07 324.291H1259.12L1234.74 267.402ZM1549.2 392.95V405H1339.02V392.95H1399.83C1384.88 384.169 1373.11 372.305 1364.52 357.359C1356.11 342.226 1351.91 325.131 1351.91 306.075C1351.91 277.303 1361.81 253.203 1381.62 233.773C1401.61 214.342 1425.61 204.627 1453.64 204.627C1481.85 204.627 1506.32 213.875 1527.06 232.371L1504.36 265.16C1495.58 257.5 1487.45 252.268 1479.98 249.466C1472.69 246.477 1464.75 244.982 1456.16 244.982C1439.53 244.982 1425.52 250.68 1414.12 262.077C1402.73 273.287 1397.03 288.139 1397.03 306.635C1397.03 325.131 1402.45 339.984 1413.28 351.194C1424.31 362.216 1437.38 367.728 1452.52 367.728C1467.65 367.728 1480.26 364.832 1490.35 359.04V305.234H1534.35V374.734C1527.99 381.833 1520.43 387.905 1511.65 392.95H1549.2ZM1641.12 392.95V405H1549.2V392.95H1573.3V209.111H1617.02V392.95H1641.12ZM1819.67 392.95V405H1638.07V392.95H1665.25V209.111H1708.97V366.046H1792.48V392.95H1819.67ZM1824.53 392.95V209.111H1965.77V248.065H1868.25V288.42H1955.97V325.692H1868.25V366.327H1968.86V392.95H1996.04V405H1797.35V392.95H1824.53ZM961.258 624.95V637H755V624.95H815.252C800.306 616.169 788.536 604.305 779.941 589.359C771.534 574.226 767.331 557.131 767.331 538.075C767.331 509.303 777.232 485.203 797.036 465.773C817.027 446.342 841.408 436.627 870.179 436.627C902.314 436.627 929.217 448.865 950.889 473.339L923.705 504.166C909.88 486.977 892.692 478.383 872.141 478.383C855.7 478.383 841.595 483.801 829.824 494.637C818.241 505.287 812.449 519.766 812.449 538.075C812.449 556.197 817.961 570.77 828.984 581.792C840.007 592.815 853.365 598.327 869.058 598.327C890.543 598.327 908.105 589.826 921.744 572.825L949.768 601.69C941.547 611.218 932.299 618.971 922.024 624.95H961.258ZM1197.35 624.95V637H1123.64L1105.43 594.684H1023.32L1005.1 637H931.397V624.95H963.624L1043.21 441.111H1085.53L1164.84 624.95H1197.35ZM1064.51 499.402L1039.85 556.291H1088.89L1064.51 499.402ZM1192.89 624.95V441.111H1267.16C1297.61 441.111 1319.28 446.249 1332.17 456.525C1345.25 466.8 1351.79 483.334 1351.79 506.127C1351.79 537.514 1339.37 557.785 1314.52 566.94L1355.43 624.95H1381.78V637H1310.32L1266.88 574.506H1236.61V637H1165.71V624.95H1192.89ZM1268.56 536.674C1283.51 536.674 1293.69 534.245 1299.11 529.387C1304.52 524.53 1307.23 516.87 1307.23 506.408C1307.23 495.758 1304.43 488.472 1298.83 484.549C1293.22 480.625 1283.41 478.664 1269.4 478.664H1236.61V536.674H1268.56ZM1396.51 624.95V441.111H1537.75V480.065H1440.23V520.42H1527.94V557.692H1440.23V598.327H1540.83V624.95H1568.02V637H1369.32V624.95H1396.51ZM1629.75 624.95V637H1555.77V624.95H1629.75ZM1843.2 624.95V637H1775.38V559.934H1697.48V637H1629.66V624.95H1653.76V441.111H1697.48V522.942H1775.38V441.111H1819.1V624.95H1843.2ZM2074.6 624.95V637H1843.12V624.95H1905.62C1890.3 616.169 1878.15 604.118 1869.19 588.798C1860.41 573.479 1856.02 556.477 1856.02 537.795C1856.02 509.023 1865.92 485.016 1885.72 465.773C1905.52 446.342 1929.91 436.627 1958.86 436.627C1987.82 436.627 2012.2 446.342 2032.01 465.773C2051.81 485.016 2061.71 509.023 2061.71 537.795C2061.71 556.477 2057.23 573.479 2048.26 588.798C2039.29 604.118 2027.24 616.169 2012.11 624.95H2074.6ZM2017.15 538.075C2017.15 520.513 2011.55 505.567 2000.34 493.236C1989.13 480.906 1975.3 474.74 1958.86 474.74C1942.61 474.74 1928.88 480.906 1917.67 493.236C1906.46 505.567 1900.85 520.513 1900.85 538.075C1900.85 555.45 1906.46 570.303 1917.67 582.633C1928.88 594.777 1942.61 600.849 1958.86 600.849C1975.3 600.849 1989.13 594.777 2000.34 582.633C2011.55 570.303 2017.15 555.45 2017.15 538.075ZM2274.18 513.694L2221.22 620.746H2195.16L2142.47 513.694V637H2071.57V624.95H2098.75V441.111H2157.88L2208.33 548.724L2259.05 441.111H2317.9V624.95H2345.08V637H2274.18V513.694ZM2366.13 624.95V441.111H2507.37V480.065H2409.85V520.42H2497.56V557.692H2409.85V598.327H2510.46V624.95H2537.64V637H2338.95V624.95H2366.13ZM2704.19 624.95V637H2525.39V624.95H2563.5C2553.23 619.718 2543.89 612.993 2535.48 604.772L2561.54 572.825C2582.65 591.321 2602.18 600.569 2620.11 600.569C2628.15 600.569 2634.41 598.887 2638.89 595.524C2643.56 591.975 2645.9 587.304 2645.9 581.512C2645.9 575.534 2643.47 570.863 2638.61 567.5C2633.75 563.95 2624.13 560.401 2609.74 556.851C2586.95 551.433 2570.23 544.427 2559.58 535.833C2549.12 527.052 2543.89 513.414 2543.89 494.918C2543.89 476.235 2550.52 461.849 2563.78 451.76C2577.24 441.672 2593.96 436.627 2613.95 436.627C2627.03 436.627 2640.1 438.869 2653.18 443.353C2666.26 447.837 2677.66 454.189 2687.37 462.41L2665.23 494.357C2648.23 481.466 2630.67 475.021 2612.55 475.021C2605.26 475.021 2599.47 476.795 2595.17 480.345C2591.06 483.708 2589.01 488.285 2589.01 494.077C2589.01 499.682 2591.53 504.166 2596.57 507.529C2601.8 510.891 2613.67 514.908 2632.16 519.579C2650.85 524.063 2665.33 530.882 2675.6 540.037C2685.88 549.191 2691.01 561.895 2691.01 578.149C2691.01 598.327 2683.45 613.927 2668.31 624.95H2704.19Z" fill="black"/>
<path d="M926.508 392.95H927.508V391.95H926.508V392.95ZM926.508 405V406H927.508V405H926.508ZM755 405H754V406H755V405ZM755 392.95V391.95H754V392.95H755ZM779.101 392.95V393.95H780.101V392.95H779.101ZM779.101 209.111V208.111H778.101V209.111H779.101ZM913.617 209.111H914.617V208.111H913.617V209.111ZM913.617 247.504V248.504H914.617V247.504H913.617ZM822.818 247.504V246.504H821.818V247.504H822.818ZM822.818 289.821H821.818V290.821H822.818V289.821ZM909.133 289.821H910.133V288.821H909.133V289.821ZM909.133 328.214V329.214H910.133V328.214H909.133ZM822.818 328.214V327.214H821.818V328.214H822.818ZM822.818 392.95H821.818V393.95H822.818V392.95ZM925.508 392.95V405H927.508V392.95H925.508ZM926.508 404H755V406H926.508V404ZM756 405V392.95H754V405H756ZM755 393.95H779.101V391.95H755V393.95ZM780.101 392.95V209.111H778.101V392.95H780.101ZM779.101 210.111H913.617V208.111H779.101V210.111ZM912.617 209.111V247.504H914.617V209.111H912.617ZM913.617 246.504H822.818V248.504H913.617V246.504ZM821.818 247.504V289.821H823.818V247.504H821.818ZM822.818 290.821H909.133V288.821H822.818V290.821ZM908.133 289.821V328.214H910.133V289.821H908.133ZM909.133 327.214H822.818V329.214H909.133V327.214ZM821.818 328.214V392.95H823.818V328.214H821.818ZM822.818 393.95H926.508V391.95H822.818V393.95ZM950.694 392.95V393.95H951.694V392.95H950.694ZM950.694 209.111V208.111H949.694V209.111H950.694ZM1089.97 224.525L1089.35 225.307L1089.36 225.311L1089.97 224.525ZM1072.32 334.94L1071.97 334.001L1070.75 334.452L1071.5 335.516L1072.32 334.94ZM1113.23 392.95L1112.42 393.526L1112.72 393.95H1113.23V392.95ZM1139.58 392.95H1140.58V391.95H1139.58V392.95ZM1139.58 405V406H1140.58V405H1139.58ZM1068.11 405L1067.29 405.571L1067.59 406H1068.11V405ZM1024.68 342.506L1025.5 341.935L1025.2 341.506H1024.68V342.506ZM994.411 342.506V341.506H993.411V342.506H994.411ZM994.411 405V406H995.411V405H994.411ZM923.51 405H922.51V406H923.51V405ZM923.51 392.95V391.95H922.51V392.95H923.51ZM1056.91 297.387L1057.57 298.132L1057.57 298.132L1056.91 297.387ZM1056.63 252.549L1057.2 251.729L1057.2 251.729L1056.63 252.549ZM994.411 246.664V245.664H993.411V246.664H994.411ZM994.411 304.674H993.411V305.674H994.411V304.674ZM951.694 392.95V209.111H949.694V392.95H951.694ZM950.694 210.111H1024.96V208.111H950.694V210.111ZM1024.96 210.111C1055.35 210.111 1076.73 215.25 1089.35 225.307L1090.6 223.743C1077.43 213.248 1055.47 208.111 1024.96 208.111V210.111ZM1089.36 225.311C1102.11 235.333 1108.59 251.52 1108.59 274.127H1110.59C1110.59 251.149 1103.99 234.267 1090.59 223.738L1089.36 225.311ZM1108.59 274.127C1108.59 289.694 1105.51 302.413 1099.42 312.348C1093.34 322.27 1084.21 329.492 1071.97 334.001L1072.66 335.878C1085.27 331.232 1094.78 323.742 1101.13 313.393C1107.46 303.058 1110.59 289.948 1110.59 274.127H1108.59ZM1071.5 335.516L1112.42 393.526L1114.05 392.373L1073.14 334.363L1071.5 335.516ZM1113.23 393.95H1139.58V391.95H1113.23V393.95ZM1138.58 392.95V405H1140.58V392.95H1138.58ZM1139.58 404H1068.11V406H1139.58V404ZM1068.94 404.429L1025.5 341.935L1023.86 343.077L1067.29 405.571L1068.94 404.429ZM1024.68 341.506H994.411V343.506H1024.68V341.506ZM993.411 342.506V405H995.411V342.506H993.411ZM994.411 404H923.51V406H994.411V404ZM924.51 405V392.95H922.51V405H924.51ZM923.51 393.95H950.694V391.95H923.51V393.95ZM1026.36 305.674C1041.33 305.674 1051.86 303.257 1057.57 298.132L1056.24 296.643C1051.12 301.232 1041.28 303.674 1026.36 303.674V305.674ZM1057.57 298.132C1063.28 293.014 1066.03 285.027 1066.03 274.408H1064.03C1064.03 284.713 1061.37 292.046 1056.24 296.643L1057.57 298.132ZM1066.03 274.408C1066.03 263.62 1063.19 255.927 1057.2 251.729L1056.05 253.368C1061.27 257.018 1064.03 263.897 1064.03 274.408H1066.03ZM1057.2 251.729C1051.32 247.617 1041.24 245.664 1027.2 245.664V247.664C1041.18 247.664 1050.72 249.634 1056.05 253.368L1057.2 251.729ZM1027.2 245.664H994.411V247.664H1027.2V245.664ZM993.411 246.664V304.674H995.411V246.664H993.411ZM994.411 305.674H1026.36V303.674H994.411V305.674ZM1367.57 392.95H1368.57V391.95H1367.57V392.95ZM1367.57 405V406H1368.57V405H1367.57ZM1293.87 405L1292.95 405.395L1293.21 406H1293.87V405ZM1275.65 362.684L1276.57 362.288L1276.31 361.684H1275.65V362.684ZM1193.54 362.684V361.684H1192.88L1192.62 362.288L1193.54 362.684ZM1175.32 405V406H1175.98L1176.24 405.395L1175.32 405ZM1101.62 405H1100.62V406H1101.62V405ZM1101.62 392.95V391.95H1100.62V392.95H1101.62ZM1133.85 392.95V393.95H1134.51L1134.77 393.347L1133.85 392.95ZM1213.44 209.111V208.111H1212.78L1212.52 208.714L1213.44 209.111ZM1255.75 209.111L1256.67 208.715L1256.41 208.111H1255.75V209.111ZM1335.06 392.95L1334.14 393.346L1334.4 393.95H1335.06V392.95ZM1234.74 267.402L1235.66 267.008L1234.74 264.875L1233.82 267.004L1234.74 267.402ZM1210.07 324.291L1209.16 323.893L1208.55 325.291H1210.07V324.291ZM1259.12 324.291V325.291H1260.63L1260.04 323.897L1259.12 324.291ZM1366.57 392.95V405H1368.57V392.95H1366.57ZM1367.57 404H1293.87V406H1367.57V404ZM1294.79 404.605L1276.57 362.288L1274.73 363.079L1292.95 405.395L1294.79 404.605ZM1275.65 361.684H1193.54V363.684H1275.65V361.684ZM1192.62 362.288L1174.41 404.605L1176.24 405.395L1194.46 363.079L1192.62 362.288ZM1175.32 404H1101.62V406H1175.32V404ZM1102.62 405V392.95H1100.62V405H1102.62ZM1101.62 393.95H1133.85V391.95H1101.62V393.95ZM1134.77 393.347L1214.36 209.509L1212.52 208.714L1132.93 392.552L1134.77 393.347ZM1213.44 210.111H1255.75V208.111H1213.44V210.111ZM1254.84 209.507L1334.14 393.346L1335.98 392.554L1256.67 208.715L1254.84 209.507ZM1335.06 393.95H1367.57V391.95H1335.06V393.95ZM1233.82 267.004L1209.16 323.893L1210.99 324.688L1235.65 267.799L1233.82 267.004ZM1210.07 325.291H1259.12V323.291H1210.07V325.291ZM1260.04 323.897L1235.66 267.008L1233.82 267.795L1258.2 324.684L1260.04 323.897ZM1549.2 392.95H1550.2V391.95H1549.2V392.95ZM1549.2 405V406H1550.2V405H1549.2ZM1339.02 405H1338.02V406H1339.02V405ZM1339.02 392.95V391.95H1338.02V392.95H1339.02ZM1399.83 392.95V393.95H1403.51L1400.34 392.087L1399.83 392.95ZM1364.52 357.359L1363.65 357.845L1363.65 357.851L1363.65 357.857L1364.52 357.359ZM1381.62 233.773L1380.92 233.055L1380.91 233.059L1381.62 233.773ZM1527.06 232.371L1527.88 232.941L1528.39 232.214L1527.73 231.625L1527.06 232.371ZM1504.36 265.16L1503.7 265.913L1504.55 266.648L1505.18 265.729L1504.36 265.16ZM1479.98 249.466L1479.6 250.391L1479.61 250.397L1479.63 250.402L1479.98 249.466ZM1414.12 262.077L1414.82 262.79L1414.83 262.784L1414.12 262.077ZM1413.28 351.194L1412.56 351.889L1412.57 351.895L1412.58 351.901L1413.28 351.194ZM1490.35 359.04L1490.85 359.908L1491.35 359.619V359.04H1490.35ZM1490.35 305.234V304.234H1489.35V305.234H1490.35ZM1534.35 305.234H1535.35V304.234H1534.35V305.234ZM1534.35 374.734L1535.09 375.401L1535.35 375.116V374.734H1534.35ZM1511.65 392.95L1511.15 392.083L1507.9 393.95H1511.65V392.95ZM1548.2 392.95V405H1550.2V392.95H1548.2ZM1549.2 404H1339.02V406H1549.2V404ZM1340.02 405V392.95H1338.02V405H1340.02ZM1339.02 393.95H1399.83V391.95H1339.02V393.95ZM1400.34 392.087C1385.54 383.394 1373.89 371.655 1365.39 356.861L1363.65 357.857C1372.33 372.955 1384.23 384.944 1399.32 393.812L1400.34 392.087ZM1365.39 356.873C1357.08 341.903 1352.91 324.979 1352.91 306.075H1350.91C1350.91 325.284 1355.15 342.548 1363.65 357.845L1365.39 356.873ZM1352.91 306.075C1352.91 277.561 1362.71 253.721 1382.32 234.486L1380.91 233.059C1360.91 252.685 1350.91 277.046 1350.91 306.075H1352.91ZM1382.31 234.49C1402.11 215.242 1425.87 205.627 1453.64 205.627V203.627C1425.35 203.627 1401.1 213.443 1380.92 233.055L1382.31 234.49ZM1453.64 205.627C1481.61 205.627 1505.84 214.788 1526.39 233.118L1527.73 231.625C1506.8 212.963 1482.09 203.627 1453.64 203.627V205.627ZM1526.24 231.802L1503.54 264.59L1505.18 265.729L1527.88 232.941L1526.24 231.802ZM1505.02 264.406C1496.18 256.7 1487.96 251.389 1480.33 248.53L1479.63 250.402C1486.95 253.148 1494.98 258.299 1503.7 265.913L1505.02 264.406ZM1480.36 248.541C1472.94 245.498 1464.87 243.982 1456.16 243.982V245.982C1464.64 245.982 1472.45 247.456 1479.6 250.391L1480.36 248.541ZM1456.16 243.982C1439.28 243.982 1425.01 249.779 1413.42 261.37L1414.83 262.784C1426.03 251.582 1439.79 245.982 1456.16 245.982V243.982ZM1413.42 261.364C1401.8 272.791 1396.03 287.917 1396.03 306.635H1398.03C1398.03 288.362 1403.65 273.782 1414.82 262.79L1413.42 261.364ZM1396.03 306.635C1396.03 325.339 1401.51 340.458 1412.56 351.889L1414 350.499C1403.38 339.51 1398.03 324.924 1398.03 306.635H1396.03ZM1412.58 351.901C1423.78 363.105 1437.11 368.728 1452.52 368.728V366.728C1437.66 366.728 1424.83 361.328 1413.99 350.487L1412.58 351.901ZM1452.52 368.728C1467.77 368.728 1480.57 365.809 1490.85 359.908L1489.85 358.173C1479.95 363.855 1467.53 366.728 1452.52 366.728V368.728ZM1491.35 359.04V305.234H1489.35V359.04H1491.35ZM1490.35 306.234H1534.35V304.234H1490.35V306.234ZM1533.35 305.234V374.734H1535.35V305.234H1533.35ZM1533.6 374.067C1527.32 381.082 1519.84 387.088 1511.15 392.083L1512.15 393.817C1521.01 388.723 1528.66 382.585 1535.09 375.401L1533.6 374.067ZM1511.65 393.95H1549.2V391.95H1511.65V393.95ZM1641.12 392.95H1642.12V391.95H1641.12V392.95ZM1641.12 405V406H1642.12V405H1641.12ZM1549.2 405H1548.2V406H1549.2V405ZM1549.2 392.95V391.95H1548.2V392.95H1549.2ZM1573.3 392.95V393.95H1574.3V392.95H1573.3ZM1573.3 209.111V208.111H1572.3V209.111H1573.3ZM1617.02 209.111H1618.02V208.111H1617.02V209.111ZM1617.02 392.95H1616.02V393.95H1617.02V392.95ZM1640.12 392.95V405H1642.12V392.95H1640.12ZM1641.12 404H1549.2V406H1641.12V404ZM1550.2 405V392.95H1548.2V405H1550.2ZM1549.2 393.95H1573.3V391.95H1549.2V393.95ZM1574.3 392.95V209.111H1572.3V392.95H1574.3ZM1573.3 210.111H1617.02V208.111H1573.3V210.111ZM1616.02 209.111V392.95H1618.02V209.111H1616.02ZM1617.02 393.95H1641.12V391.95H1617.02V393.95ZM1819.67 392.95H1820.67V391.95H1819.67V392.95ZM1819.67 405V406H1820.67V405H1819.67ZM1638.07 405H1637.07V406H1638.07V405ZM1638.07 392.95V391.95H1637.07V392.95H1638.07ZM1665.25 392.95V393.95H1666.25V392.95H1665.25ZM1665.25 209.111V208.111H1664.25V209.111H1665.25ZM1708.97 209.111H1709.97V208.111H1708.97V209.111ZM1708.97 366.046H1707.97V367.046H1708.97V366.046ZM1792.48 366.046H1793.48V365.046H1792.48V366.046ZM1792.48 392.95H1791.48V393.95H1792.48V392.95ZM1818.67 392.95V405H1820.67V392.95H1818.67ZM1819.67 404H1638.07V406H1819.67V404ZM1639.07 405V392.95H1637.07V405H1639.07ZM1638.07 393.95H1665.25V391.95H1638.07V393.95ZM1666.25 392.95V209.111H1664.25V392.95H1666.25ZM1665.25 210.111H1708.97V208.111H1665.25V210.111ZM1707.97 209.111V366.046H1709.97V209.111H1707.97ZM1708.97 367.046H1792.48V365.046H1708.97V367.046ZM1791.48 366.046V392.95H1793.48V366.046H1791.48ZM1792.48 393.95H1819.67V391.95H1792.48V393.95ZM1824.53 392.95V393.95H1825.53V392.95H1824.53ZM1824.53 209.111V208.111H1823.53V209.111H1824.53ZM1965.77 209.111H1966.77V208.111H1965.77V209.111ZM1965.77 248.065V249.065H1966.77V248.065H1965.77ZM1868.25 248.065V247.065H1867.25V248.065H1868.25ZM1868.25 288.42H1867.25V289.42H1868.25V288.42ZM1955.97 288.42H1956.97V287.42H1955.97V288.42ZM1955.97 325.692V326.692H1956.97V325.692H1955.97ZM1868.25 325.692V324.692H1867.25V325.692H1868.25ZM1868.25 366.327H1867.25V367.327H1868.25V366.327ZM1968.86 366.327H1969.86V365.327H1968.86V366.327ZM1968.86 392.95H1967.86V393.95H1968.86V392.95ZM1996.04 392.95H1997.04V391.95H1996.04V392.95ZM1996.04 405V406H1997.04V405H1996.04ZM1797.35 405H1796.35V406H1797.35V405ZM1797.35 392.95V391.95H1796.35V392.95H1797.35ZM1825.53 392.95V209.111H1823.53V392.95H1825.53ZM1824.53 210.111H1965.77V208.111H1824.53V210.111ZM1964.77 209.111V248.065H1966.77V209.111H1964.77ZM1965.77 247.065H1868.25V249.065H1965.77V247.065ZM1867.25 248.065V288.42H1869.25V248.065H1867.25ZM1868.25 289.42H1955.97V287.42H1868.25V289.42ZM1954.97 288.42V325.692H1956.97V288.42H1954.97ZM1955.97 324.692H1868.25V326.692H1955.97V324.692ZM1867.25 325.692V366.327H1869.25V325.692H1867.25ZM1868.25 367.327H1968.86V365.327H1868.25V367.327ZM1967.86 366.327V392.95H1969.86V366.327H1967.86ZM1968.86 393.95H1996.04V391.95H1968.86V393.95ZM1995.04 392.95V405H1997.04V392.95H1995.04ZM1996.04 404H1797.35V406H1996.04V404ZM1798.35 405V392.95H1796.35V405H1798.35ZM1797.35 393.95H1824.53V391.95H1797.35V393.95ZM961.258 624.95H962.258V623.95H961.258V624.95ZM961.258 637V638H962.258V637H961.258ZM755 637H754V638H755V637ZM755 624.95V623.95H754V624.95H755ZM815.252 624.95V625.95H818.928L815.758 624.087L815.252 624.95ZM779.941 589.359L779.067 589.845L779.071 589.851L779.075 589.857L779.941 589.359ZM797.036 465.773L796.339 465.055L796.336 465.059L797.036 465.773ZM950.889 473.339L951.639 474L952.223 473.338L951.637 472.676L950.889 473.339ZM923.705 504.166L922.926 504.792L923.67 505.717L924.455 504.827L923.705 504.166ZM829.824 494.637L830.501 495.374L830.502 495.373L829.824 494.637ZM828.984 581.792L828.277 582.5L828.277 582.5L828.984 581.792ZM921.744 572.825L922.461 572.128L921.672 571.316L920.964 572.199L921.744 572.825ZM949.768 601.69L950.525 602.343L951.123 601.65L950.485 600.993L949.768 601.69ZM922.024 624.95L921.521 624.085L918.317 625.95H922.024V624.95ZM960.258 624.95V637H962.258V624.95H960.258ZM961.258 636H755V638H961.258V636ZM756 637V624.95H754V637H756ZM755 625.95H815.252V623.95H755V625.95ZM815.758 624.087C800.961 615.394 789.315 603.655 780.808 588.861L779.075 589.857C787.756 604.955 799.65 616.944 814.745 625.812L815.758 624.087ZM780.816 588.873C772.499 573.903 768.331 556.979 768.331 538.075H766.331C766.331 557.284 770.569 574.548 779.067 589.845L780.816 588.873ZM768.331 538.075C768.331 509.561 778.132 485.721 797.737 466.486L796.336 465.059C776.333 484.685 766.331 509.046 766.331 538.075H768.331ZM797.733 466.49C817.531 447.247 841.659 437.627 870.179 437.627V435.627C841.157 435.627 816.523 445.438 796.339 465.055L797.733 466.49ZM870.179 437.627C902.022 437.627 928.654 449.738 950.14 474.002L951.637 472.676C929.779 447.992 902.605 435.627 870.179 435.627V437.627ZM950.139 472.678L922.955 503.504L924.455 504.827L951.639 474L950.139 472.678ZM924.484 503.539C910.485 486.135 893.019 477.383 872.141 477.383V479.383C892.364 479.383 909.275 487.82 922.926 504.792L924.484 503.539ZM872.141 477.383C855.457 477.383 841.107 482.891 829.147 493.902L830.502 495.373C842.082 484.712 855.943 479.383 872.141 479.383V477.383ZM829.148 493.901C817.324 504.771 811.449 519.536 811.449 538.075H813.449C813.449 519.995 819.158 505.802 830.501 495.374L829.148 493.901ZM811.449 538.075C811.449 556.416 817.036 571.259 828.277 582.5L829.691 581.085C818.886 570.281 813.449 555.978 813.449 538.075H811.449ZM828.277 582.5C839.488 593.711 853.101 599.327 869.058 599.327V597.327C853.628 597.327 840.525 591.919 829.691 581.085L828.277 582.5ZM869.058 599.327C890.852 599.327 908.699 590.684 922.524 573.45L920.964 572.199C907.512 588.968 890.235 597.327 869.058 597.327V599.327ZM921.026 573.521L949.05 602.386L950.485 600.993L922.461 572.128L921.026 573.521ZM949.011 601.036C940.858 610.486 931.695 618.166 921.521 624.085L922.527 625.814C932.904 619.777 942.236 611.95 950.525 602.343L949.011 601.036ZM922.024 625.95H961.258V623.95H922.024V625.95ZM1197.35 624.95H1198.35V623.95H1197.35V624.95ZM1197.35 637V638H1198.35V637H1197.35ZM1123.64 637L1122.72 637.395L1122.98 638H1123.64V637ZM1105.43 594.684L1106.34 594.288L1106.08 593.684H1105.43V594.684ZM1023.32 594.684V593.684H1022.66L1022.4 594.288L1023.32 594.684ZM1005.1 637V638H1005.76L1006.02 637.395L1005.1 637ZM931.397 637H930.397V638H931.397V637ZM931.397 624.95V623.95H930.397V624.95H931.397ZM963.624 624.95V625.95H964.281L964.542 625.347L963.624 624.95ZM1043.21 441.111V440.111H1042.56L1042.3 440.714L1043.21 441.111ZM1085.53 441.111L1086.45 440.715L1086.19 440.111H1085.53V441.111ZM1164.84 624.95L1163.92 625.346L1164.18 625.95H1164.84V624.95ZM1064.51 499.402L1065.43 499.008L1064.52 496.875L1063.59 499.004L1064.51 499.402ZM1039.85 556.291L1038.93 555.893L1038.33 557.291H1039.85V556.291ZM1088.89 556.291V557.291H1090.41L1089.81 555.897L1088.89 556.291ZM1196.35 624.95V637H1198.35V624.95H1196.35ZM1197.35 636H1123.64V638H1197.35V636ZM1124.56 636.605L1106.34 594.288L1104.51 595.079L1122.72 637.395L1124.56 636.605ZM1105.43 593.684H1023.32V595.684H1105.43V593.684ZM1022.4 594.288L1004.18 636.605L1006.02 637.395L1024.23 595.079L1022.4 594.288ZM1005.1 636H931.397V638H1005.1V636ZM932.397 637V624.95H930.397V637H932.397ZM931.397 625.95H963.624V623.95H931.397V625.95ZM964.542 625.347L1044.13 441.509L1042.3 440.714L962.707 624.552L964.542 625.347ZM1043.21 442.111H1085.53V440.111H1043.21V442.111ZM1084.61 441.507L1163.92 625.346L1165.76 624.554L1086.45 440.715L1084.61 441.507ZM1164.84 625.95H1197.35V623.95H1164.84V625.95ZM1063.59 499.004L1038.93 555.893L1040.77 556.688L1065.43 499.799L1063.59 499.004ZM1039.85 557.291H1088.89V555.291H1039.85V557.291ZM1089.81 555.897L1065.43 499.008L1063.59 499.795L1087.97 556.684L1089.81 555.897ZM1192.89 624.95V625.95H1193.89V624.95H1192.89ZM1192.89 441.111V440.111H1191.89V441.111H1192.89ZM1332.17 456.525L1331.55 457.307L1331.56 457.311L1332.17 456.525ZM1314.52 566.94L1314.17 566.001L1312.95 566.452L1313.7 567.516L1314.52 566.94ZM1355.43 624.95L1354.62 625.526L1354.92 625.95H1355.43V624.95ZM1381.78 624.95H1382.78V623.95H1381.78V624.95ZM1381.78 637V638H1382.78V637H1381.78ZM1310.32 637L1309.49 637.571L1309.79 638H1310.32V637ZM1266.88 574.506L1267.7 573.935L1267.4 573.506H1266.88V574.506ZM1236.61 574.506V573.506H1235.61V574.506H1236.61ZM1236.61 637V638H1237.61V637H1236.61ZM1165.71 637H1164.71V638H1165.71V637ZM1165.71 624.95V623.95H1164.71V624.95H1165.71ZM1299.11 529.387L1299.77 530.132L1299.77 530.132L1299.11 529.387ZM1298.83 484.549L1299.4 483.729L1299.4 483.729L1298.83 484.549ZM1236.61 478.664V477.664H1235.61V478.664H1236.61ZM1236.61 536.674H1235.61V537.674H1236.61V536.674ZM1193.89 624.95V441.111H1191.89V624.95H1193.89ZM1192.89 442.111H1267.16V440.111H1192.89V442.111ZM1267.16 442.111C1297.55 442.111 1318.93 447.25 1331.55 457.307L1332.8 455.743C1319.63 445.248 1297.67 440.111 1267.16 440.111V442.111ZM1331.56 457.311C1344.31 467.333 1350.79 483.52 1350.79 506.127H1352.79C1352.79 483.149 1346.19 466.267 1332.79 455.738L1331.56 457.311ZM1350.79 506.127C1350.79 521.694 1347.71 534.413 1341.62 544.348C1335.54 554.27 1326.41 561.492 1314.17 566.001L1314.86 567.878C1327.47 563.232 1336.98 555.742 1343.33 545.393C1349.66 535.058 1352.79 521.948 1352.79 506.127H1350.79ZM1313.7 567.516L1354.62 625.526L1356.25 624.373L1315.34 566.363L1313.7 567.516ZM1355.43 625.95H1381.78V623.95H1355.43V625.95ZM1380.78 624.95V637H1382.78V624.95H1380.78ZM1381.78 636H1310.32V638H1381.78V636ZM1311.14 636.429L1267.7 573.935L1266.06 575.077L1309.49 637.571L1311.14 636.429ZM1266.88 573.506H1236.61V575.506H1266.88V573.506ZM1235.61 574.506V637H1237.61V574.506H1235.61ZM1236.61 636H1165.71V638H1236.61V636ZM1166.71 637V624.95H1164.71V637H1166.71ZM1165.71 625.95H1192.89V623.95H1165.71V625.95ZM1268.56 537.674C1283.53 537.674 1294.06 535.257 1299.77 530.132L1298.44 528.643C1293.32 533.232 1283.48 535.674 1268.56 535.674V537.674ZM1299.77 530.132C1305.48 525.014 1308.23 517.027 1308.23 506.408H1306.23C1306.23 516.713 1303.57 524.046 1298.44 528.643L1299.77 530.132ZM1308.23 506.408C1308.23 495.62 1305.4 487.927 1299.4 483.729L1298.25 485.368C1303.47 489.018 1306.23 495.897 1306.23 506.408H1308.23ZM1299.4 483.729C1293.52 479.617 1283.44 477.664 1269.4 477.664V479.664C1283.38 479.664 1292.92 481.634 1298.25 485.368L1299.4 483.729ZM1269.4 477.664H1236.61V479.664H1269.4V477.664ZM1235.61 478.664V536.674H1237.61V478.664H1235.61ZM1236.61 537.674H1268.56V535.674H1236.61V537.674ZM1396.51 624.95V625.95H1397.51V624.95H1396.51ZM1396.51 441.111V440.111H1395.51V441.111H1396.51ZM1537.75 441.111H1538.75V440.111H1537.75V441.111ZM1537.75 480.065V481.065H1538.75V480.065H1537.75ZM1440.23 480.065V479.065H1439.23V480.065H1440.23ZM1440.23 520.42H1439.23V521.42H1440.23V520.42ZM1527.94 520.42H1528.94V519.42H1527.94V520.42ZM1527.94 557.692V558.692H1528.94V557.692H1527.94ZM1440.23 557.692V556.692H1439.23V557.692H1440.23ZM1440.23 598.327H1439.23V599.327H1440.23V598.327ZM1540.83 598.327H1541.83V597.327H1540.83V598.327ZM1540.83 624.95H1539.83V625.95H1540.83V624.95ZM1568.02 624.95H1569.02V623.95H1568.02V624.95ZM1568.02 637V638H1569.02V637H1568.02ZM1369.32 637H1368.32V638H1369.32V637ZM1369.32 624.95V623.95H1368.32V624.95H1369.32ZM1397.51 624.95V441.111H1395.51V624.95H1397.51ZM1396.51 442.111H1537.75V440.111H1396.51V442.111ZM1536.75 441.111V480.065H1538.75V441.111H1536.75ZM1537.75 479.065H1440.23V481.065H1537.75V479.065ZM1439.23 480.065V520.42H1441.23V480.065H1439.23ZM1440.23 521.42H1527.94V519.42H1440.23V521.42ZM1526.94 520.42V557.692H1528.94V520.42H1526.94ZM1527.94 556.692H1440.23V558.692H1527.94V556.692ZM1439.23 557.692V598.327H1441.23V557.692H1439.23ZM1440.23 599.327H1540.83V597.327H1440.23V599.327ZM1539.83 598.327V624.95H1541.83V598.327H1539.83ZM1540.83 625.95H1568.02V623.95H1540.83V625.95ZM1567.02 624.95V637H1569.02V624.95H1567.02ZM1568.02 636H1369.32V638H1568.02V636ZM1370.32 637V624.95H1368.32V637H1370.32ZM1369.32 625.95H1396.51V623.95H1369.32V625.95ZM1629.75 624.95H1630.75V623.95H1629.75V624.95ZM1629.75 637V638H1630.75V637H1629.75ZM1555.77 637H1554.77V638H1555.77V637ZM1555.77 624.95V623.95H1554.77V624.95H1555.77ZM1628.75 624.95V637H1630.75V624.95H1628.75ZM1629.75 636H1555.77V638H1629.75V636ZM1556.77 637V624.95H1554.77V637H1556.77ZM1555.77 625.95H1629.75V623.95H1555.77V625.95ZM1843.2 624.95H1844.2V623.95H1843.2V624.95ZM1843.2 637V638H1844.2V637H1843.2ZM1775.38 637H1774.38V638H1775.38V637ZM1775.38 559.934H1776.38V558.934H1775.38V559.934ZM1697.48 559.934V558.934H1696.48V559.934H1697.48ZM1697.48 637V638H1698.48V637H1697.48ZM1629.66 637H1628.66V638H1629.66V637ZM1629.66 624.95V623.95H1628.66V624.95H1629.66ZM1653.76 624.95V625.95H1654.76V624.95H1653.76ZM1653.76 441.111V440.111H1652.76V441.111H1653.76ZM1697.48 441.111H1698.48V440.111H1697.48V441.111ZM1697.48 522.942H1696.48V523.942H1697.48V522.942ZM1775.38 522.942V523.942H1776.38V522.942H1775.38ZM1775.38 441.111V440.111H1774.38V441.111H1775.38ZM1819.1 441.111H1820.1V440.111H1819.1V441.111ZM1819.1 624.95H1818.1V625.95H1819.1V624.95ZM1842.2 624.95V637H1844.2V624.95H1842.2ZM1843.2 636H1775.38V638H1843.2V636ZM1776.38 637V559.934H1774.38V637H1776.38ZM1775.38 558.934H1697.48V560.934H1775.38V558.934ZM1696.48 559.934V637H1698.48V559.934H1696.48ZM1697.48 636H1629.66V638H1697.48V636ZM1630.66 637V624.95H1628.66V637H1630.66ZM1629.66 625.95H1653.76V623.95H1629.66V625.95ZM1654.76 624.95V441.111H1652.76V624.95H1654.76ZM1653.76 442.111H1697.48V440.111H1653.76V442.111ZM1696.48 441.111V522.942H1698.48V441.111H1696.48ZM1697.48 523.942H1775.38V521.942H1697.48V523.942ZM1776.38 522.942V441.111H1774.38V522.942H1776.38ZM1775.38 442.111H1819.1V440.111H1775.38V442.111ZM1818.1 441.111V624.95H1820.1V441.111H1818.1ZM1819.1 625.95H1843.2V623.95H1819.1V625.95ZM2074.6 624.95H2075.6V623.95H2074.6V624.95ZM2074.6 637V638H2075.6V637H2074.6ZM1843.12 637H1842.12V638H1843.12V637ZM1843.12 624.95V623.95H1842.12V624.95H1843.12ZM1905.62 624.95V625.95H1909.37L1906.12 624.082L1905.62 624.95ZM1869.19 588.798L1868.32 589.296L1868.32 589.304L1869.19 588.798ZM1885.72 465.773L1886.42 466.49L1886.42 466.486L1885.72 465.773ZM2032.01 465.773L2031.31 466.486L2031.31 466.49L2032.01 465.773ZM2048.26 588.798L2049.12 589.304L2049.12 589.304L2048.26 588.798ZM2012.11 624.95L2011.61 624.085L2008.39 625.95H2012.11V624.95ZM2000.34 493.236L1999.6 493.909L1999.6 493.909L2000.34 493.236ZM1917.67 493.236L1918.41 493.909L1918.41 493.909L1917.67 493.236ZM1917.67 582.633L1916.93 583.306L1916.93 583.311L1917.67 582.633ZM2000.34 582.633L2001.07 583.311L2001.08 583.306L2000.34 582.633ZM2073.6 624.95V637H2075.6V624.95H2073.6ZM2074.6 636H1843.12V638H2074.6V636ZM1844.12 637V624.95H1842.12V637H1844.12ZM1843.12 625.95H1905.62V623.95H1843.12V625.95ZM1906.12 624.082C1890.95 615.388 1878.93 603.463 1870.05 588.293L1868.32 589.304C1877.38 604.773 1889.65 616.949 1905.12 625.817L1906.12 624.082ZM1870.05 588.301C1861.37 573.142 1857.02 556.313 1857.02 537.795H1855.02C1855.02 556.641 1859.45 573.816 1868.32 589.296L1870.05 588.301ZM1857.02 537.795C1857.02 509.281 1866.82 485.536 1886.42 466.49L1885.02 465.055C1865.02 484.496 1855.02 508.766 1855.02 537.795H1857.02ZM1886.42 466.486C1906.03 447.248 1930.15 437.627 1958.86 437.627V435.627C1929.66 435.627 1905.02 445.437 1885.02 465.059L1886.42 466.486ZM1958.86 437.627C1987.57 437.627 2011.7 447.248 2031.31 466.486L2032.71 465.059C2012.71 445.437 1988.07 435.627 1958.86 435.627V437.627ZM2031.31 466.49C2050.91 485.536 2060.71 509.281 2060.71 537.795H2062.71C2062.71 508.766 2052.71 484.496 2032.7 465.055L2031.31 466.49ZM2060.71 537.795C2060.71 556.309 2056.27 573.135 2047.4 588.293L2049.12 589.304C2058.19 573.822 2062.71 556.645 2062.71 537.795H2060.71ZM2047.4 588.293C2038.52 603.466 2026.59 615.392 2011.61 624.085L2012.61 625.815C2027.9 616.946 2040.07 604.77 2049.12 589.304L2047.4 588.293ZM2012.11 625.95H2074.6V623.95H2012.11V625.95ZM2018.15 538.075C2018.15 520.279 2012.47 505.089 2001.08 492.564L1999.6 493.909C2010.63 506.045 2016.15 520.747 2016.15 538.075H2018.15ZM2001.08 492.564C1989.68 480.028 1975.59 473.74 1958.86 473.74V475.74C1975.02 475.74 1988.58 481.783 1999.6 493.909L2001.08 492.564ZM1958.86 473.74C1942.32 473.74 1928.32 480.03 1916.93 492.564L1918.41 493.909C1929.43 481.781 1942.9 475.74 1958.86 475.74V473.74ZM1916.93 492.564C1905.54 505.089 1899.85 520.279 1899.85 538.075H1901.85C1901.85 520.747 1907.38 506.045 1918.41 493.909L1916.93 492.564ZM1899.85 538.075C1899.85 555.687 1905.54 570.783 1916.93 583.306L1918.41 581.961C1907.37 569.822 1901.85 555.213 1901.85 538.075H1899.85ZM1916.93 583.311C1928.33 595.656 1942.33 601.849 1958.86 601.849V599.849C1942.89 599.849 1929.43 593.898 1918.4 581.955L1916.93 583.311ZM1958.86 601.849C1975.59 601.849 1989.68 595.659 2001.07 583.311L1999.6 581.955C1988.58 593.895 1975.02 599.849 1958.86 599.849V601.849ZM2001.08 583.306C2012.46 570.783 2018.15 555.687 2018.15 538.075H2016.15C2016.15 555.213 2010.63 569.822 1999.6 581.961L2001.08 583.306ZM2274.18 513.694H2275.18L2273.29 513.25L2274.18 513.694ZM2221.22 620.746V621.746H2221.84L2222.11 621.189L2221.22 620.746ZM2195.16 620.746L2194.26 621.188L2194.53 621.746H2195.16V620.746ZM2142.47 513.694L2143.37 513.252L2141.47 513.694H2142.47ZM2142.47 637V638H2143.47V637H2142.47ZM2071.57 637H2070.57V638H2071.57V637ZM2071.57 624.95V623.95H2070.57V624.95H2071.57ZM2098.75 624.95V625.95H2099.75V624.95H2098.75ZM2098.75 441.111V440.111H2097.75V441.111H2098.75ZM2157.88 441.111L2158.79 440.687L2158.52 440.111H2157.88V441.111ZM2208.33 548.724L2207.42 549.148L2208.32 551.075L2209.23 549.15L2208.33 548.724ZM2259.05 441.111V440.111H2258.42L2258.15 440.685L2259.05 441.111ZM2317.9 441.111H2318.9V440.111H2317.9V441.111ZM2317.9 624.95H2316.9V625.95H2317.9V624.95ZM2345.08 624.95H2346.08V623.95H2345.08V624.95ZM2345.08 637V638H2346.08V637H2345.08ZM2274.18 637H2273.18V638H2274.18V637ZM2273.29 513.25L2220.32 620.303L2222.11 621.189L2275.08 514.137L2273.29 513.25ZM2221.22 619.746H2195.16V621.746H2221.22V619.746ZM2196.05 620.304L2143.37 513.252L2141.57 514.135L2194.26 621.188L2196.05 620.304ZM2141.47 513.694V637H2143.47V513.694H2141.47ZM2142.47 636H2071.57V638H2142.47V636ZM2072.57 637V624.95H2070.57V637H2072.57ZM2071.57 625.95H2098.75V623.95H2071.57V625.95ZM2099.75 624.95V441.111H2097.75V624.95H2099.75ZM2098.75 442.111H2157.88V440.111H2098.75V442.111ZM2156.98 441.536L2207.42 549.148L2209.23 548.3L2158.79 440.687L2156.98 441.536ZM2209.23 549.15L2259.96 441.538L2258.15 440.685L2207.42 548.298L2209.23 549.15ZM2259.05 442.111H2317.9V440.111H2259.05V442.111ZM2316.9 441.111V624.95H2318.9V441.111H2316.9ZM2317.9 625.95H2345.08V623.95H2317.9V625.95ZM2344.08 624.95V637H2346.08V624.95H2344.08ZM2345.08 636H2274.18V638H2345.08V636ZM2275.18 637V513.694H2273.18V637H2275.18ZM2366.13 624.95V625.95H2367.13V624.95H2366.13ZM2366.13 441.111V440.111H2365.13V441.111H2366.13ZM2507.37 441.111H2508.37V440.111H2507.37V441.111ZM2507.37 480.065V481.065H2508.37V480.065H2507.37ZM2409.85 480.065V479.065H2408.85V480.065H2409.85ZM2409.85 520.42H2408.85V521.42H2409.85V520.42ZM2497.56 520.42H2498.56V519.42H2497.56V520.42ZM2497.56 557.692V558.692H2498.56V557.692H2497.56ZM2409.85 557.692V556.692H2408.85V557.692H2409.85ZM2409.85 598.327H2408.85V599.327H2409.85V598.327ZM2510.46 598.327H2511.46V597.327H2510.46V598.327ZM2510.46 624.95H2509.46V625.95H2510.46V624.95ZM2537.64 624.95H2538.64V623.95H2537.64V624.95ZM2537.64 637V638H2538.64V637H2537.64ZM2338.95 637H2337.95V638H2338.95V637ZM2338.95 624.95V623.95H2337.95V624.95H2338.95ZM2367.13 624.95V441.111H2365.13V624.95H2367.13ZM2366.13 442.111H2507.37V440.111H2366.13V442.111ZM2506.37 441.111V480.065H2508.37V441.111H2506.37ZM2507.37 479.065H2409.85V481.065H2507.37V479.065ZM2408.85 480.065V520.42H2410.85V480.065H2408.85ZM2409.85 521.42H2497.56V519.42H2409.85V521.42ZM2496.56 520.42V557.692H2498.56V520.42H2496.56ZM2497.56 556.692H2409.85V558.692H2497.56V556.692ZM2408.85 557.692V598.327H2410.85V557.692H2408.85ZM2409.85 599.327H2510.46V597.327H2409.85V599.327ZM2509.46 598.327V624.95H2511.46V598.327H2509.46ZM2510.46 625.95H2537.64V623.95H2510.46V625.95ZM2536.64 624.95V637H2538.64V624.95H2536.64ZM2537.64 636H2338.95V638H2537.64V636ZM2339.95 637V624.95H2337.95V637H2339.95ZM2338.95 625.95H2366.13V623.95H2338.95V625.95ZM2704.19 624.95H2705.19V623.95H2704.19V624.95ZM2704.19 637V638H2705.19V637H2704.19ZM2525.39 637H2524.39V638H2525.39V637ZM2525.39 624.95V623.95H2524.39V624.95H2525.39ZM2563.5 624.95V625.95L2563.96 624.058L2563.5 624.95ZM2535.48 604.772L2534.71 604.14L2534.13 604.848L2534.78 605.487L2535.48 604.772ZM2561.54 572.825L2562.2 572.073L2561.42 571.39L2560.77 572.193L2561.54 572.825ZM2638.89 595.524L2639.49 596.324L2639.49 596.32L2638.89 595.524ZM2638.61 567.5L2638.02 568.308L2638.03 568.315L2638.04 568.322L2638.61 567.5ZM2609.74 556.851L2609.98 555.88L2609.98 555.878L2609.74 556.851ZM2559.58 535.833L2558.94 536.599L2558.95 536.605L2558.95 536.611L2559.58 535.833ZM2563.78 451.76L2563.18 450.96L2563.18 450.965L2563.78 451.76ZM2653.18 443.353L2653.51 442.407L2653.51 442.407L2653.18 443.353ZM2687.37 462.41L2688.19 462.979L2688.71 462.233L2688.02 461.646L2687.37 462.41ZM2665.23 494.357L2664.63 495.154L2665.46 495.785L2666.05 494.927L2665.23 494.357ZM2595.17 480.345L2595.8 481.119L2595.81 481.116L2595.17 480.345ZM2596.57 507.529L2596.02 508.361L2596.03 508.365L2596.03 508.37L2596.57 507.529ZM2632.16 519.579L2631.92 520.549L2631.93 520.551L2632.16 519.579ZM2675.6 540.037L2674.94 540.783L2674.94 540.783L2675.6 540.037ZM2668.31 624.95L2667.73 624.141L2665.24 625.95H2668.31V624.95ZM2703.19 624.95V637H2705.19V624.95H2703.19ZM2704.19 636H2525.39V638H2704.19V636ZM2526.39 637V624.95H2524.39V637H2526.39ZM2525.39 625.95H2563.5V623.95H2525.39V625.95ZM2563.96 624.058C2553.77 618.874 2544.52 612.208 2536.18 604.057L2534.78 605.487C2543.26 613.777 2552.68 620.563 2563.05 625.841L2563.96 624.058ZM2536.26 605.404L2562.32 573.457L2560.77 572.193L2534.71 604.14L2536.26 605.404ZM2560.88 573.577C2582.08 592.147 2601.83 601.569 2620.11 601.569V599.569C2602.52 599.569 2583.23 590.495 2562.2 572.073L2560.88 573.577ZM2620.11 601.569C2628.27 601.569 2634.77 599.863 2639.49 596.324L2638.29 594.724C2634.04 597.912 2628.02 599.569 2620.11 599.569V601.569ZM2639.49 596.32C2644.41 592.585 2646.9 587.621 2646.9 581.512H2644.9C2644.9 586.987 2642.71 591.365 2638.28 594.728L2639.49 596.32ZM2646.9 581.512C2646.9 575.21 2644.31 570.23 2639.18 566.678L2638.04 568.322C2642.62 571.496 2644.9 575.857 2644.9 581.512H2646.9ZM2639.2 566.693C2634.16 563.014 2624.36 559.428 2609.98 555.88L2609.5 557.822C2623.9 561.373 2633.34 564.887 2638.02 568.308L2639.2 566.693ZM2609.98 555.878C2587.24 550.473 2570.69 543.511 2560.21 535.055L2558.95 536.611C2569.77 545.343 2586.66 552.393 2609.51 557.824L2609.98 555.878ZM2560.22 535.067C2550.06 526.537 2544.89 513.229 2544.89 494.918H2542.89C2542.89 513.598 2548.18 527.567 2558.94 536.599L2560.22 535.067ZM2544.89 494.918C2544.89 476.504 2551.41 462.431 2564.39 452.556L2563.18 450.965C2549.63 461.267 2542.89 475.966 2542.89 494.918H2544.89ZM2564.38 452.56C2577.63 442.625 2594.13 437.627 2613.95 437.627V435.627C2593.78 435.627 2576.84 440.719 2563.18 450.96L2564.38 452.56ZM2613.95 437.627C2626.91 437.627 2639.88 439.849 2652.86 444.299L2653.51 442.407C2640.33 437.89 2627.14 435.627 2613.95 435.627V437.627ZM2652.86 444.299C2665.83 448.746 2677.11 455.04 2686.73 463.173L2688.02 461.646C2678.2 453.339 2666.69 446.928 2653.51 442.407L2652.86 444.299ZM2686.55 461.84L2664.41 493.788L2666.05 494.927L2688.19 462.979L2686.55 461.84ZM2665.84 493.56C2648.69 480.562 2630.92 474.021 2612.55 474.021V476.021C2630.41 476.021 2647.77 482.371 2664.63 495.154L2665.84 493.56ZM2612.55 474.021C2605.1 474.021 2599.06 475.836 2594.53 479.574L2595.81 481.116C2599.88 477.755 2605.42 476.021 2612.55 476.021V474.021ZM2594.54 479.571C2590.17 483.143 2588.01 488.016 2588.01 494.077H2590.01C2590.01 488.554 2591.95 484.273 2595.8 481.119L2594.54 479.571ZM2588.01 494.077C2588.01 500.047 2590.72 504.83 2596.02 508.361L2597.13 506.696C2592.33 503.501 2590.01 499.316 2590.01 494.077H2588.01ZM2596.03 508.37C2598.76 510.12 2603.13 511.997 2609.07 514.01C2615.04 516.03 2622.66 518.21 2631.92 520.548L2632.41 518.609C2623.17 516.277 2615.61 514.113 2609.71 512.116C2603.8 510.113 2599.62 508.3 2597.11 506.687L2596.03 508.37ZM2631.93 520.551C2650.51 525.011 2664.82 531.773 2674.94 540.783L2676.27 539.29C2665.83 529.991 2651.18 523.114 2632.4 518.606L2631.93 520.551ZM2674.94 540.783C2684.96 549.713 2690.01 562.124 2690.01 578.149H2692.01C2692.01 561.667 2686.79 548.669 2676.27 539.29L2674.94 540.783ZM2690.01 578.149C2690.01 598.036 2682.58 613.323 2667.73 624.141L2668.9 625.758C2684.32 614.53 2692.01 598.617 2692.01 578.149H2690.01ZM2668.31 625.95H2704.19V623.95H2668.31V625.95Z" fill="black"/>
<g clip-path="url(#clip0_403_409)">
<path d="M19.8423 251.956C19.6881 251.838 19.5612 251.698 19.4615 251.535C14.3748 242.839 9.24274 233.935 4.06538 224.823C-0.354865 217.057 -2.13656 209.25 6.36392 204.095C19.6473 196.044 46.0011 180.67 85.4252 157.975C175.607 106.065 265.753 54.1014 355.863 2.08298C360.977 -0.868384 368.566 -1.46681 373.68 1.53896C376.4 3.14385 379.143 4.74421 381.908 6.34003C449.305 45.3017 516.715 84.2452 584.138 123.171C585.457 123.932 589.007 125.36 590.911 126.87C592.072 127.786 592.974 128.425 593.618 128.788C605.986 135.806 618.308 142.901 630.585 150.073C631.909 150.844 633.305 151.465 634.774 151.936C634.982 152.009 635.168 152.127 635.332 152.29C636.256 153.242 638.124 154.498 640.935 156.057C655.388 164.064 682.726 179.886 722.948 203.524C733.148 209.508 730.414 218.553 725.219 226.958C721.211 233.423 717.349 239.974 713.631 246.611C711.654 250.138 709.673 252.514 707.688 253.738C700.058 258.43 695.256 254.772 688.878 250.515C686.606 249.005 682.785 247.25 679.942 245.618C645.015 225.598 610.075 205.551 575.311 185.299C518.868 152.426 469.96 124.531 405.506 87.1422C402.776 85.5645 400.696 84.4991 399.263 83.946C397.835 83.402 397.495 82.2187 396.352 81.6203C386.079 76.1891 375.965 70.3815 366.009 64.1977C365.8 64.0665 365.559 63.9946 365.312 63.9899C365.066 63.9851 364.822 64.0475 364.608 64.1705C259.529 124.83 154.744 185.317 50.2536 245.632C47.2705 247.355 44.8949 248.66 43.1268 249.549C34.1639 254.051 30.9949 259.899 19.8423 251.956Z" fill="url(#paint0_linear_403_409)"/>
<path d="M123.752 582.265C123.752 583.861 124.437 584.251 125.806 583.434L309.688 473.717C309.876 473.604 310.034 473.449 310.15 473.264C310.266 473.079 310.336 472.869 310.355 472.652C310.373 472.435 310.34 472.217 310.257 472.017C310.174 471.817 310.045 471.639 309.879 471.5C299.343 462.614 289.831 453.543 281.344 444.285C267.39 429.061 256.015 412.106 247.22 393.418C246.83 392.593 246.667 391.623 246.73 390.508C246.748 390.267 246.696 390.027 246.581 389.814C243.444 383.666 241.743 379.491 241.481 377.288C240.828 371.698 238.747 366.475 238.271 361.007C236.693 342.959 236.299 327.903 241.685 310.249C242.813 306.55 244.962 303.299 246.594 299.464C255.571 278.26 283.303 259.124 306.261 257.886C314.381 257.451 321.263 257.152 330.566 257.886C335.027 258.24 339.383 259.201 343.636 260.77C345.54 261.477 347.254 260.879 349.063 261.654C354.376 263.93 359.803 265.902 365.343 267.57C365.6 267.65 365.879 267.65 366.145 267.57C372.973 265.408 378.93 262.279 386.125 260.797C392.082 259.573 397.726 257.084 404.445 258.104C404.711 258.148 404.986 258.11 405.234 257.995C406.431 257.424 407.22 257.138 407.6 257.138C417.348 257.021 424.737 257.451 429.77 258.43C447.206 261.803 464.139 272.453 475.944 286.734C482.201 294.309 486.186 305.108 489.926 314.738C491.513 318.836 492.233 323.138 492.088 327.645C492.034 328.923 492.714 329.562 492.809 330.678C493.19 335.248 494.455 352.14 492.238 355.499C492.071 355.755 491.994 356.061 492.02 356.37C492.492 361.447 492.333 365.101 491.544 367.332C488.811 375.098 486.73 383.816 483.874 390.725C476.176 409.277 465.644 426.119 452.279 441.252C442.94 451.806 432.417 461.83 420.712 471.323C420.54 471.461 420.405 471.639 420.318 471.84C420.23 472.042 420.193 472.262 420.209 472.481C420.225 472.701 420.294 472.913 420.41 473.1C420.526 473.286 420.685 473.442 420.875 473.554C445.383 488.098 469.42 502.433 492.986 516.559C516.615 530.741 540.294 544.84 564.023 558.858C564.114 558.912 565.877 560.059 569.314 562.299C572.006 564.067 575.08 565.277 577.583 566.801C586.305 572.105 595.033 577.396 603.764 582.673C605.143 583.498 605.832 583.108 605.832 581.503C605.813 480.177 605.813 378.856 605.832 277.54C605.832 269.787 610.225 263.98 618.195 263.776C628.93 263.504 639.652 263.49 650.361 263.735C657.868 263.912 663.05 268.889 663.336 276.356C663.621 283.633 663.309 292.949 663.309 298.022C663.272 412.223 663.268 526.429 663.295 640.639C663.295 650.976 660.085 655.723 649.653 655.886C631.247 656.176 619.686 656.199 614.971 655.954C607.45 655.559 598.814 648.718 591.904 644.57C578.304 636.428 564.744 628.222 551.225 619.953C548.273 618.144 544.329 615.94 540.847 613.832C482.609 578.715 424.37 543.598 366.132 508.481C365.92 508.35 365.677 508.281 365.429 508.281C365.182 508.281 364.94 508.35 364.731 508.481C299.121 547.995 233.492 587.442 167.846 626.821C167.783 626.857 166.472 627.782 163.915 629.596C161.671 631.187 159.237 631.717 157.006 633.186C146.438 640.15 135.272 646.46 124.432 653.03C121.1 655.056 116.653 655.981 112.355 655.981C101.855 655.999 91.3507 656.004 80.8419 655.995C71.5661 655.981 66.8875 650.364 66.8875 641.401C66.8875 520.617 66.8875 399.829 66.8875 279.036C66.8875 269.352 71.0901 263.572 80.9914 263.599C90.5211 263.626 100.046 263.626 109.567 263.599C115.252 263.585 119.169 264.551 122.188 269.148C123.616 271.31 123.535 274.683 124.419 277.431C124.524 277.747 124.509 278.09 124.378 278.396C123.072 281.348 123.698 283.279 123.698 286.122C123.625 384.899 123.643 483.614 123.752 582.265ZM388.423 422.945C396.067 416.92 412.592 400.613 419.379 388.617C420.294 386.994 421.097 385.716 421.786 384.782C428.967 375.044 433.211 361.347 436.23 345.04C437.318 339.165 433.319 327.06 429.702 322.776C423.463 315.359 415.058 313.106 404.486 316.016C392.803 319.226 384.656 323.456 373.639 329.685C363.983 335.152 356.801 329.658 348.723 324.829C346.864 323.714 345.069 322.78 343.337 322.028C337.978 319.679 332.483 317.689 326.853 316.057C310.273 311.256 296.441 320.232 294.741 337.764C293.544 350.072 297.434 365.482 303.962 376.662C305.803 379.826 307.213 382.265 308.192 383.979C309.87 386.917 311.719 389.741 313.741 392.452C324.885 407.304 337.955 420.148 352.952 430.983C356.135 433.296 360.351 437.063 364.853 439.661C365.079 439.791 365.339 439.852 365.602 439.838C365.865 439.823 366.119 439.733 366.336 439.579C373.689 434.302 381.052 428.757 388.423 422.945Z" fill="url(#paint1_linear_403_409)"/>
</g>
<defs>
<linearGradient id="paint0_linear_403_409" x1="124.404" y1="-13.0515" x2="178.428" y2="313.82" gradientUnits="userSpaceOnUse">
<stop offset="0.229167" stop-color="#20C9FF"/>
<stop offset="0.752002" stop-color="#063EBA"/>
</linearGradient>
<linearGradient id="paint1_linear_403_409" x1="168.323" y1="237.497" x2="317.902" y2="713.059" gradientUnits="userSpaceOnUse">
<stop offset="0.229167" stop-color="#20C9FF"/>
<stop offset="0.752002" stop-color="#063EBA"/>
</linearGradient>
<clipPath id="clip0_403_409">
<rect width="730" height="655" fill="white"/>
</clipPath>
</defs>
</svg>
