<svg version="1.2" xmlns="http://www.w3.org/2000/svg" viewBox="0 0 126 126" width="126" height="126"><defs><linearGradient id="P" gradientUnits="userSpaceOnUse"/><linearGradient id="g1" x1="4.2" y1="6.7" x2="122.8" y2="6.7" href="#P"><stop stop-color="#1d5f60"/><stop offset="1" stop-color="#002020"/></linearGradient></defs><style>.a{fill:url(#g1)}</style><path fill-rule="evenodd" class="a" d="m120.5 102.1h-17c-0.6 0-1.2-0.2-1.6-0.6l-13 13.7q0 0 0 0c-2.7 2.7-5.9 4.1-9.5 4.1h-36.7q-0.2 0-0.3 0c-3.3 0-6.2-1.8-7.5-4.9-1.4-3.3-0.8-7.1 1.6-9.5 1.7-1.7 3.9-2.6 6.2-2.4l24.3-0.7c-0.2-2.1 0.5-4.2 1.9-5.9 1.6-1.9 3.4-4.3 5.2-6.7 4.2-5.4 8.8-11.5 12.7-15.5 3.6-3.5 8.3-5.4 13.4-5.4h1v-1.4c0-1.3 1-2.3 2.3-2.3h17c1.3 0 2.3 1 2.3 2.3v32.9c0 1.3-1 2.3-2.3 2.3zm-59.7-48.2c-0.6 0-1.1-0.3-1.6-0.7-10.8-10.8-21.9-22-21.9-33.6 0-7.1 5.8-12.9 12.9-12.9 5.1 0 8.2 2.1 10.6 5.6 2.5-3.5 5.5-5.6 10.7-5.6 7.1 0 12.9 5.8 12.9 12.9 0 11.6-11.1 22.8-21.9 33.6-0.5 0.4-1.1 0.7-1.7 0.7zm-10.6-42.6c-4.6 0-8.3 3.7-8.3 8.3 0 9.2 9.4 19 18.9 28.6 9.6-9.6 19-19.4 19-28.6 0-4.6-3.7-8.3-8.3-8.3-4 0-6 1.6-8.6 6.7-0.4 0.8-1.2 1.3-2.1 1.3-0.8 0-1.6-0.5-2-1.3-2.6-5.1-4.6-6.7-8.6-6.7zm12.6 74.8q0 0 0 0l-18.9-0.4c0 0.5-0.2 1.1-0.7 1.5l-12 12c-0.4 0.5-1 0.7-1.6 0.7-0.6 0-1.2-0.2-1.7-0.7l-23.2-23.2c-0.9-0.9-0.9-2.4 0-3.3l12-12c0.9-0.9 2.4-0.9 3.3 0l1 1 0.7-0.8c3.6-3.5 8.3-5.5 13.3-5.5q0 0 0 0c5.5 0 13.1 1 19.8 1.9 3.1 0.4 6 0.8 8.5 1.1 2.2 0.1 4.2 1.1 5.5 2.8l17.7-16.8c1.5-1.6 3.7-2.6 6.1-2.6 3.4 0 6.5 2.3 7.8 5.6 1.3 3.2 0.5 6.6-2 9l-25.9 25.9c-2.5 2.6-5.7 3.9-9.5 3.9q-0.1 0-0.2-0.1zm-22.6-5.2l22.7 0.6c2.6 0 4.6-0.7 6.3-2.5l26-25.9q0-0.1 0-0.1c1.6-1.4 1.3-3.1 0.9-3.9-0.5-1.3-1.8-2.6-3.5-2.6-0.8 0-1.9 0.2-2.7 1.1q-0.1 0.1-0.1 0.1l-19.3 18.2c0 1.8 0 4.2-1.6 5.7-0.6 0.6-1.7 1.3-3.3 1.3q-0.2 0-0.4-0.1l-20-1.2c-1.3-0.1-2.2-1.2-2.2-2.5 0.1-1.2 1.2-2.2 2.5-2.1l20 1.2q0.1 0 0.2 0c0.2-0.5 0.2-1.9 0.2-2.5q0-0.2 0-0.4c-0.5-1.4-1.5-2.2-2.9-2.3q-0.1 0-0.1 0c-2.6-0.3-5.6-0.7-8.7-1.1-6.5-0.9-14-1.9-19.2-1.9q0 0 0 0c-3.8 0-7.3 1.5-10 4.2l-0.8 0.7zm-20.9-14.3l-0.9-1-8.8 8.8 20 19.9 8.7-8.7-0.7-0.7zm81.9 28.9v-22.6h-1c-3.9 0-7.4 1.5-10.1 4.1-3.7 3.7-8.3 9.7-12.3 15-1.9 2.5-3.7 4.8-5.3 6.9q-0.1 0-0.1 0c-0.9 1.1-1.1 2.4-0.4 3.7q0.1 0.1 0.2 0.3c0.5 0.4 1.5 1.4 2 1.6q0 0 0.1-0.1l13.3-15c0.8-1 2.3-1.1 3.3-0.2 0.9 0.8 1 2.3 0.2 3.2l-13.3 15.1c-1.3 1.4-2.6 1.7-3.5 1.7q0 0-0.1 0c-2.1 0-3.8-1.6-5.1-2.9l-26.4 0.8q-0.1 0-0.2 0c-1.2-0.1-2.1 0.5-2.7 1.1-1.2 1.2-1.2 3-0.7 4.3 0.4 0.9 1.3 2.2 3.4 2.2q0.1 0 0.1 0h36.7c2.5 0 4.4-0.9 6.3-2.8zm4.6-24.9v25.8q0 0.1 0 0.1v1h12.4v-28.3h-12.4z"/></svg>